<?xml version="1.0" standalone="no"?>
<!DOCTYPE svg PUBLIC "-//W3C//DTD SVG 20010904//EN"
 "http://www.w3.org/TR/2001/REC-SVG-20010904/DTD/svg10.dtd">
<svg version="1.0" xmlns="http://www.w3.org/2000/svg"
 width="260.000000pt" height="260.000000pt" viewBox="0 0 260.000000 260.000000"
 preserveAspectRatio="xMidYMid meet">
<metadata>
Created by potrace 1.11, written by Peter Selinger 2001-2013
</metadata>
<g transform="translate(0.000000,260.000000) scale(0.100000,-0.100000)"
fill="#000000" stroke="none">
<path d="M1150 2320 c-135 -11 -288 -42 -417 -86 -69 -23 -120 -34 -160 -34
-104 -1 -191 -63 -214 -153 -6 -27 -30 -65 -60 -101 -74 -86 -159 -220 -147
-231 2 -1 61 -8 133 -14 72 -7 146 -15 165 -20 35 -7 34 -7 -40 -30 -117 -36
-216 -90 -288 -156 l-65 -61 117 -23 c162 -32 340 -91 273 -91 -40 0 -307
-155 -307 -179 0 -4 42 -15 93 -24 51 -9 122 -25 159 -37 l67 -20 -47 -44
c-50 -47 -87 -102 -75 -109 5 -3 35 -10 68 -17 325 -63 517 -155 729 -346 190
-171 252 -212 380 -249 88 -26 224 -17 291 17 83 43 166 142 195 231 8 26 17
37 31 37 11 0 52 7 92 16 64 14 77 22 119 64 74 77 157 271 158 369 0 14 22
50 57 90 31 36 63 82 71 101 22 54 11 117 -34 189 -21 34 -55 94 -75 133 -21
40 -62 95 -95 129 -58 58 -58 58 -55 114 2 52 -1 60 -44 121 -48 66 -180 204
-196 204 -5 0 -9 9 -9 19 0 25 -44 77 -89 105 -68 43 -181 70 -231 56 -22 -6
-51 -5 -94 5 -57 13 -134 21 -286 29 -36 2 -112 0 -170 -4z m210 -125 c191
-43 404 -186 538 -359 12 -16 25 -26 28 -23 3 3 1 30 -5 60 -16 76 -76 171
-141 225 -30 25 -59 50 -65 55 -9 8 45 -12 129 -47 102 -42 234 -151 288 -235
35 -55 38 -134 9 -216 -11 -30 -17 -55 -15 -55 3 0 23 9 46 20 46 22 45 22
111 -39 42 -39 77 -98 77 -129 0 -11 15 -31 33 -45 77 -59 85 -152 18 -218
-42 -42 -81 -56 -120 -43 -23 8 -26 16 -29 62 l-3 52 51 32 c52 32 64 54 58
104 -5 48 -35 56 -180 50 -140 -5 -177 -16 -192 -59 -14 -38 17 -78 75 -95 81
-24 88 -33 70 -100 -9 -32 -20 -43 -58 -65 -148 -80 -302 -56 -528 82 -204
124 -273 146 -435 138 -58 -3 -123 -11 -145 -18 l-40 -13 70 -8 c83 -9 211
-27 243 -35 21 -5 19 -8 -20 -25 -56 -25 -120 -88 -166 -163 -47 -78 -50 -144
-7 -230 54 -111 206 -277 309 -339 90 -54 142 -62 272 -42 122 18 158 13 187
-26 24 -32 19 -42 -46 -75 -91 -48 -213 -35 -358 38 -68 34 -122 77 -264 209
-60 56 -137 121 -170 145 -108 77 -298 162 -455 202 l-35 9 41 28 c23 15 73
38 110 51 l69 24 -47 20 c-39 18 -231 75 -323 97 -29 6 -28 8 41 40 96 45 212
74 311 77 46 1 83 5 83 9 0 26 -281 135 -421 163 -46 10 -91 19 -99 22 -36 12
233 100 391 129 52 9 145 17 208 17 l113 0 -68 43 c-37 23 -85 50 -105 60 -33
15 -37 20 -32 44 l5 27 -70 -5 c-60 -4 -78 -1 -124 21 -93 42 -134 118 -104
191 18 42 77 75 137 76 74 0 161 -46 199 -105 16 -25 20 -26 20 -10 0 27 -33
97 -53 114 -31 25 -18 37 61 60 183 53 364 62 522 26z m-980 -305 c0 -6 19
-29 43 -52 l42 -41 -49 6 c-27 4 -64 7 -83 7 l-34 0 32 45 c31 43 49 56 49 35z
m1819 -485 c-119 -14 -149 -26 -149 -57 0 -17 -2 -18 -15 -8 -24 20 -18 46 13
58 44 18 62 20 162 20 l95 0 -106 -13z m85 -351 c26 -7 50 -15 52 -17 2 -2 -1
-30 -7 -63 -20 -109 -112 -279 -165 -303 -13 -6 -63 -16 -111 -22 -107 -13
-287 2 -342 28 l-36 18 0 130 c0 72 -4 148 -9 169 -8 36 -7 39 10 32 96 -37
202 -45 299 -21 33 8 64 14 69 15 10 0 2 -112 -10 -145 -16 -46 77 62 107 124
36 74 45 83 74 74 11 -3 42 -12 69 -19z m-877 -66 c24 -24 54 -59 66 -78 l21
-34 8 34 c3 19 3 52 -2 73 -9 43 -2 46 59 21 43 -17 51 -38 51 -145 0 -94 -11
-149 -29 -149 -9 0 -45 -18 -80 -39 -95 -59 -117 -66 -146 -51 -41 22 -65 86
-65 170 l0 74 -49 47 c-29 28 -67 53 -90 60 -23 7 -41 15 -41 19 0 15 76 43
130 49 80 10 117 -1 167 -51z m229 -339 c15 -25 95 -49 202 -60 124 -14 128
-17 92 -77 -26 -43 -48 -51 -69 -25 -37 47 -100 58 -212 38 -46 -8 -100 -14
-119 -14 -35 0 -120 29 -123 42 -1 4 36 29 83 56 83 49 132 62 146 40z"/>
<path d="M604 2019 c20 -64 19 -80 -9 -109 l-28 -30 80 3 80 2 -7 26 c-14 49
-47 87 -109 124 -11 6 -13 3 -7 -16z"/>
<path d="M1025 1825 c6 -2 51 -16 100 -30 131 -38 285 -105 285 -125 0 -60
150 -135 218 -109 20 8 23 15 20 39 -5 35 12 36 27 2 10 -22 58 -42 103 -42
54 0 7 72 -82 124 -60 35 -228 90 -351 115 -88 18 -346 39 -320 26z m601 -187
c9 -10 -15 -47 -38 -59 -19 -10 -25 -8 -50 20 -41 46 -37 54 27 49 30 -3 58
-7 61 -10z"/>
<path d="M1775 1362 c40 -22 49 -32 47 -51 -2 -19 1 -21 20 -16 68 21 57 56
-25 80 -81 24 -99 18 -42 -13z"/>
<path d="M1665 1292 c40 -22 49 -32 47 -51 -2 -19 1 -21 20 -16 13 4 30 14 38
22 13 13 12 16 -8 33 -26 21 -83 40 -122 40 -21 0 -17 -5 25 -28z"/>
<path d="M1820 1265 c0 -2 23 -16 51 -30 44 -23 50 -29 45 -50 -6 -23 -5 -24
25 -13 59 20 48 58 -24 76 -69 18 -97 23 -97 17z"/>
</g>
</svg>
